<?xml version="1.0" encoding="UTF-8"?>
<svg width="20px" height="20px" viewBox="0 0 20 20" version="1.1" xmlns="http://www.w3.org/2000/svg" xmlns:xlink="http://www.w3.org/1999/xlink">
    <title>icon_info</title>
    <g id="__Assets-export" stroke="none" stroke-width="1" fill="none" fill-rule="evenodd">
        <g id="Light" transform="translate(-718, -1751)">
            <g id="info" transform="translate(718, 1751)">
                <path d="M19.5432921,2.17039505 C19.3910561,1.26606378 18.7059943,0.580675869 17.8020932,0.428367444 C15.2045671,0 10.8563273,0 9.99048525,0 C9.1246432,0 4.77640343,0 2.16936251,0.437886721 C1.27497621,0.580675869 0.580399619,1.27558306 0.437678402,2.17039505 C0,4.77867682 0,9.1289862 0,9.99524036 C0,10.8614945 0,15.2118039 0.437678402,17.8200857 C0.589914367,18.7244169 1.27497621,19.4098049 2.17887726,19.5621133 C4.78591817,20 9.1246432,20 10,20 C10.8658421,20 15.2140818,20 17.8211227,19.5621133 C18.7250238,19.4098049 19.4100856,18.7244169 19.5623216,17.8200857 C20,15.2118039 20,10.8710138 20,9.99524036 C19.9809705,7.38695859 19.9809705,4.77867682 19.5432921,2.17039505 Z" id="Path" fill="#007BC7" fill-rule="nonzero"></path>
                <path d="M9.07706946,4.33128034 C8.867745,4.56926226 8.76308278,4.84532128 8.76308278,5.16897668 C8.76308278,5.50215136 8.867745,5.77821038 9.07706946,6.00667301 C9.29590866,6.22561637 9.59086584,6.33984769 9.9809705,6.33984769 C10.3615604,6.33984769 10.6660324,6.22561637 10.8753568,5.98763446 C11.0846813,5.74965255 11.1893435,5.47359353 11.1893435,5.16897668 C11.1893435,4.82628272 11.0846813,4.54070443 10.8753568,4.31224179 C10.6660324,4.08377915 10.3710752,3.96954783 9.9809705,3.96954783 C9.59086584,3.96954783 9.28639391,4.09329843 9.07706946,4.33128034 Z M11.0466223,15.973346 L11.0466223,7.44408377 L8.94386299,7.52975726 L8.94386299,15.973346 L11.0466223,15.973346 Z" id="Shape" fill="#FFFFFF"></path>
            </g>
        </g>
    </g>
</svg>