<?xml version="1.0" encoding="UTF-8"?>
<svg width="20px" height="20px" viewBox="0 0 20 20" version="1.1" xmlns="http://www.w3.org/2000/svg" xmlns:xlink="http://www.w3.org/1999/xlink">
    <title>icon_move_inbox</title>
    <g id="__Assets-export" stroke="none" stroke-width="1" fill="none" fill-rule="evenodd">
        <g id="Light" transform="translate(-470, -1730)">
            <g id="Group" transform="translate(470, 1730)">
                <rect id="Rectangle" x="0" y="0" width="20" height="20"></rect>
                <path d="M17.85625,8.87453683 L17.85625,16.7707868 C17.85625,17.3107868 17.44125,17.7507868 16.93,17.7507868 L3.1575,17.7507868 C2.6475,17.7507868 2.2325,17.3107868 2.2325,16.7707868 L2.2325,8.87453683 L8.50375,13.2870368 C8.9725,13.6145368 9.5075,13.7795368 10.04375,13.7795368 C10.58125,13.7795368 11.11625,13.6145368 11.58375,13.2857868 L17.85625,8.87453683 Z M10.5,2.49828683 L16.875,6.72328683 L10.5,10.9470368 C10.1970328,11.1482537 9.80296716,11.1482537 9.5,10.9470368 L3.125,6.72203683 L9.5,2.49953683 C9.80316777,2.29898572 10.1968322,2.29898572 10.5,2.49953683 L10.5,2.49828683 Z M20,6.71828683 L20,6.71453683 C20,6.70203683 19.99625,6.69203683 19.99625,6.68078683 C19.9950984,6.62799124 19.990085,6.57535068 19.98125,6.52328683 C19.97625,6.49578683 19.965,6.47078683 19.95875,6.44328683 C19.94875,6.40953683 19.94,6.37453683 19.92625,6.33953683 C19.91,6.30203683 19.88875,6.26453683 19.86875,6.22828683 C19.85875,6.21078683 19.85125,6.19078683 19.84,6.17203683 L19.8375,6.16953683 C19.803017,6.11758909 19.7636733,6.06903732 19.72,6.02453683 C19.69125,5.99328683 19.65625,5.96703683 19.6225,5.94078683 C19.6075,5.92828683 19.5925,5.91328683 19.575,5.90203683 C19.54125,5.87828683 19.5075,5.86203683 19.47125,5.84453683 L19.44625,5.83078683 L11.59375,0.493286834 C10.6330359,-0.164428945 9.36696411,-0.164428945 8.40625,0.493286834 L0.55375,5.82953683 L0.53375,5.83953683 C0.49625,5.85828683 0.45875,5.87703683 0.42375,5.90078683 C0.41,5.91078683 0.39625,5.92453683 0.3825,5.93578683 C0.3475,5.96328683 0.31125,5.98953683 0.28,6.02328683 C0.236252191,6.06772077 0.196902495,6.11627997 0.1625,6.16828683 L0.16,6.17078683 C0.14875,6.18953683 0.14125,6.20953683 0.13,6.22953683 C0.11,6.26453683 0.08875,6.30078683 0.07375,6.33828683 C0.06,6.37328683 0.05125,6.40828683 0.04125,6.44328683 C0.03375,6.47078683 0.02375,6.49578683 0.01875,6.52203683 C0.00963940307,6.57406385 0.00462401957,6.62672538 0.00375,6.67953683 C0.00375,6.69203683 0,6.70203683 0,6.71328683 L0,17.0620368 C0,18.6820368 1.29,19.9995368 2.875,19.9995368 L17.125,19.9995368 C18.71,19.9995368 20,18.6820368 20,17.0620368 L20,6.71953683 L20,6.71828683 Z" id="Shape" fill="#282828"></path>
            </g>
        </g>
    </g>
</svg>